<?xml version="1.0" encoding="UTF-8"?>
<!DOCTYPE svg PUBLIC "-//W3C//DTD SVG 1.1//EN" "http://www.w3.org/Graphics/SVG/1.1/DTD/svg11.dtd">
<!-- Creator: CorelDRAW X8 -->
<svg xmlns="http://www.w3.org/2000/svg" xml:space="preserve" width="130mm" height="30mm" version="1.1" style="shape-rendering:geometricPrecision; text-rendering:geometricPrecision; image-rendering:optimizeQuality; fill-rule:evenodd; clip-rule:evenodd"
viewBox="0 0 13000 3000"
 xmlns:xlink="http://www.w3.org/1999/xlink">
 <defs>
  <style type="text/css">
   <![CDATA[
    .fil0 {fill:#8D1638}
   ]]>
  </style>
 </defs>
 <g id="Слой_x0020_1">
  <metadata id="CorelCorpID_0Corel-Layer"/>
  <g id="_1898507045664">
   <path class="fil0" d="M4815 1375l405 0 -53 249c69,-86 154,-154 254,-201 101,-47 205,-71 312,-71 81,0 144,13 193,38 48,25 83,58 105,100 23,43 35,91 37,145 50,-61 105,-112 165,-153 59,-40 122,-72 191,-95 69,-24 137,-35 207,-35 88,0 156,15 204,46 48,30 81,71 100,120 19,50 28,106 28,167 0,22 -2,51 -6,87 -3,36 -10,80 -22,132l-203 931 -450 0 177 -813c9,-44 14,-83 14,-116 0,-53 -12,-93 -35,-119 -23,-26 -53,-39 -88,-39 -36,0 -75,12 -115,33 -42,22 -81,52 -118,91 -36,39 -68,82 -96,129l-178 834 -450 0 177 -818c6,-22 10,-43 11,-62 2,-19 3,-37 3,-54 0,-52 -11,-90 -34,-115 -22,-25 -54,-37 -93,-37 -52,0 -110,24 -173,72 -62,48 -114,108 -153,180l-180 835 -450 0 315 -1461 -1 0z"/>
   <path class="fil0" d="M7608 2864c-109,0 -202,-25 -280,-76 -78,-51 -138,-122 -181,-211 -41,-89 -62,-191 -62,-304 0,-124 21,-241 64,-352 44,-111 103,-208 178,-293 74,-84 160,-151 257,-200 97,-51 198,-76 305,-76 96,0 178,25 247,74 69,49 115,113 139,192l51 -243 453 0 -208 935c-2,11 -4,21 -5,30 0,9 0,18 0,28 0,42 23,63 70,65l-79 380c-41,8 -78,13 -110,17 -31,4 -59,6 -81,6 -73,0 -132,-13 -175,-40 -43,-25 -65,-70 -65,-130l0 -20c0,-7 1,-15 3,-23 1,-9 3,-17 6,-28 -70,91 -151,158 -244,203 -93,44 -187,66 -283,66zm203 -380c28,0 56,-5 86,-15 29,-9 57,-23 85,-39 28,-16 55,-37 82,-62 26,-25 50,-52 71,-81l65 -305c-7,-49 -21,-91 -45,-128 -23,-35 -53,-65 -88,-86 -35,-22 -73,-33 -112,-33 -53,0 -103,13 -150,39 -46,25 -89,60 -125,103 -36,44 -66,94 -87,149 -22,56 -32,113 -32,174 0,55 10,103 29,146 20,42 49,77 86,101 38,25 83,37 135,37l0 0z"/>
   <path class="fil0" d="M8951 2589c0,-18 1,-36 3,-56 1,-18 5,-38 8,-58l163 -759 -177 0 76 -341 175 0 101 -470 451 0 -102 470 284 0 -73 341 -284 0 -130 602c-2,7 -3,15 -4,24 -1,8 -1,16 -1,23 0,31 9,53 27,68 18,13 41,20 68,20 21,0 43,-3 65,-8 23,-6 45,-12 69,-20 24,-7 46,-16 67,-25l5 357c-45,19 -93,37 -145,54 -51,16 -104,29 -158,39 -53,9 -106,14 -159,14 -94,0 -172,-21 -235,-64 -63,-42 -94,-113 -94,-211z"/>
   <path class="fil0" d="M10576 2864c-149,0 -270,-28 -364,-85 -94,-56 -162,-131 -207,-224 -44,-93 -66,-196 -66,-309 0,-119 22,-231 66,-339 45,-107 107,-202 188,-285 80,-83 176,-149 288,-197 112,-48 237,-73 376,-73 150,0 272,28 365,84 93,55 161,129 205,223 44,93 67,197 67,312 0,114 -23,228 -67,336 -44,107 -106,202 -187,286 -81,85 -177,151 -289,198 -111,49 -237,73 -375,73zm64 -380c51,0 99,-11 145,-34 47,-22 87,-55 122,-97 36,-42 64,-91 85,-148 20,-56 31,-116 31,-180 0,-60 -9,-111 -27,-154 -18,-43 -44,-76 -77,-100 -34,-24 -76,-35 -127,-35 -50,0 -96,11 -142,34 -46,23 -87,55 -124,96 -36,43 -65,92 -85,148 -21,57 -31,118 -31,183 0,57 8,107 26,150 18,44 45,78 79,101 35,25 76,36 125,36z"/>
   <path class="fil0" d="M11860 1375l413 0 -65 295c72,-98 151,-175 238,-231 88,-56 173,-83 258,-83l43 0c9,0 16,1 22,2l-85 403c-101,0 -197,17 -287,50 -91,34 -161,83 -214,148l-189 877 -450 0 315 -1461 1 0z"/>
   <polygon class="fil0" points="1497,158 804,158 269,2830 1330,2830 1458,2217 1089,2217 "/>
   <polygon class="fil0" points="2523,158 1843,158 1503,1878 1874,1878 1676,2830 1988,2830 1988,2829 2415,2829 2555,2132 2128,2132 "/>
   <path class="fil0" d="M3284 2872c-109,0 -202,-26 -280,-76 -78,-51 -138,-121 -180,-210 -43,-91 -63,-191 -63,-304 0,-125 21,-242 64,-353 43,-110 102,-208 177,-293 75,-83 161,-151 258,-201 97,-50 198,-75 306,-75 95,0 178,25 246,74 68,49 115,114 140,193l50 -244 453 0 -208 935c-2,11 -4,21 -5,30 0,10 -1,19 -1,27 0,43 24,65 71,66l-79 380c-41,8 -78,13 -110,17 -31,4 -59,6 -81,6 -74,0 -132,-13 -175,-39 -43,-26 -65,-70 -65,-131l0 -21c0,-6 1,-13 3,-22 1,-8 4,-18 6,-28 -70,90 -151,158 -244,203 -93,44 -187,66 -283,66zm203 -379c28,0 56,-5 86,-15 28,-10 57,-23 85,-40 28,-15 55,-36 82,-62 26,-25 50,-52 71,-81l64 -305c-6,-49 -20,-91 -44,-127 -23,-37 -52,-65 -88,-87 -36,-22 -73,-33 -112,-33 -53,0 -103,13 -150,38 -47,26 -88,60 -125,105 -36,43 -66,93 -87,148 -22,56 -32,113 -32,174 0,54 10,103 29,146 20,43 48,76 86,101 38,25 82,37 135,37l0 1z"/>
  </g>
 </g>
</svg>
